<svg width="77" height="77" viewBox="0 0 77 77" fill="none" xmlns="http://www.w3.org/2000/svg">
<g filter="url(#filter0_d_30_3)">
<g clip-path="url(#clip0_30_3)">
<path d="M64.1484 5H12.8516C8.51526 5 5 8.51526 5 12.8516V64.1484C5 68.4847 8.51526 72 12.8516 72H64.1484C68.4847 72 72 68.4847 72 64.1484V12.8516C72 8.51526 68.4847 5 64.1484 5Z" fill="white"/>
<path fill-rule="evenodd" clip-rule="evenodd" d="M42.5279 52.5936C41.214 52.8867 39.8583 53.0307 38.5052 53.0307C37.1522 53.0307 35.7965 52.8841 34.4826 52.5936C33.5666 52.4078 32.6898 52.9574 32.5119 53.876C32.3261 54.792 32.8757 55.6688 33.7943 55.8468C35.328 56.1792 36.9402 56.3571 38.5079 56.3571C40.0756 56.3571 41.6877 56.1713 43.2214 55.8468C44.1374 55.6609 44.6818 54.7528 44.5038 53.876C44.318 53.1066 43.6611 52.5622 42.8969 52.5622C42.7503 52.5622 42.6378 52.5622 42.5331 52.6015V52.5936H42.5279Z" fill="#D1B180"/>
<path fill-rule="evenodd" clip-rule="evenodd" d="M29.1776 23.7102C26.6232 25.9819 24.9351 29.0885 24.4981 32.4542C24.3855 33.3703 27.6779 33.7367 27.7905 32.8913C28.4893 27.7014 32.8757 23.7495 38.0682 23.5323L40.476 20.3524C39.8191 20.2398 39.1622 20.2058 38.5052 20.2058C35.0663 20.2058 31.7398 21.4464 29.1854 23.7181L29.1776 23.7102Z" fill="#D1B180"/>
<path fill-rule="evenodd" clip-rule="evenodd" d="M42.4127 24.2599C45.9983 25.647 48.6652 28.9002 49.2096 32.8914C49.3221 33.7341 52.6093 33.3703 52.502 32.4543C52.0649 29.0886 50.3847 25.982 47.8617 23.7522C46.6944 22.7289 45.3387 21.8861 43.9124 21.3025L42.4127 24.2625V24.2599Z" fill="#D1B180"/>
<path fill-rule="evenodd" clip-rule="evenodd" d="M38.4634 60.3065H38.61C39.8505 60.3065 41.0989 60.1939 42.3421 60.0473C43.2581 59.9008 43.8757 59.0581 43.7292 58.1499C43.6166 57.3072 42.8864 56.7235 42.083 56.7235H41.8239C40.7299 56.8701 39.6333 56.9434 38.5314 56.9434C37.4296 56.9434 36.3409 56.8701 35.239 56.7235C34.323 56.577 33.4881 57.2339 33.3416 58.1106C33.195 59.0266 33.8519 59.8615 34.7287 60.0081C35.9378 60.1939 37.2098 60.3012 38.4608 60.3012L38.4686 60.3091L38.4634 60.3065Z" fill="#D1B180"/>
<path fill-rule="evenodd" clip-rule="evenodd" d="M29.8738 36.3618H40.0363L32.1769 51.9759L47.1682 32.2345H37.003L44.831 16.6936L29.8738 36.3618Z" fill="#D1B180"/>
<path fill-rule="evenodd" clip-rule="evenodd" d="M24.4954 36.2179C24.9325 39.5836 26.6127 42.6509 29.175 44.92C30.3422 45.9433 31.6979 46.7861 33.085 47.3697L34.5847 44.3678C30.9991 42.9807 28.3322 39.7615 27.7878 35.7782C27.7486 35.4144 27.2356 35.2678 26.6206 35.2678C25.6313 35.2678 24.43 35.6316 24.5033 36.2179H24.4954Z" fill="#D1B180"/>
<path fill-rule="evenodd" clip-rule="evenodd" d="M38.4634 48.4637C41.9338 48.4637 45.2602 47.2231 47.8565 44.92C50.4187 42.6561 52.0571 39.5836 52.4967 36.2179C52.57 35.6656 51.3609 35.2678 50.3794 35.2678C49.7539 35.2678 49.2436 35.4144 49.2122 35.7782C48.5134 40.9681 44.127 44.92 38.9345 45.1372L36.5267 48.3171C37.1522 48.3904 37.8091 48.4637 38.466 48.4637H38.4634Z" fill="#D1B180"/>
<path fill-rule="evenodd" clip-rule="evenodd" d="M42.4546 48.5369C41.1722 48.9007 39.8583 49.0473 38.5445 49.0473C37.741 49.0473 36.8983 48.974 36.1367 48.8614L33.9069 51.7901C35.4065 52.1957 36.9821 52.3737 38.5471 52.3737C40.1122 52.3737 41.8003 52.1539 43.334 51.7168C44.2107 51.4577 44.7211 50.5495 44.5012 49.6728C44.2814 48.9426 43.6245 48.4636 42.8943 48.4636C42.7477 48.5029 42.6012 48.5029 42.4572 48.5369H42.4546Z" fill="#D1B180"/>
</g>
</g>
<defs>
<filter id="filter0_d_30_3" x="0.6" y="0.6" width="75.8" height="75.8" filterUnits="userSpaceOnUse" color-interpolation-filters="sRGB">
<feFlood flood-opacity="0" result="BackgroundImageFix"/>
<feColorMatrix in="SourceAlpha" type="matrix" values="0 0 0 0 0 0 0 0 0 0 0 0 0 0 0 0 0 0 127 0" result="hardAlpha"/>
<feOffset/>
<feGaussianBlur stdDeviation="2.2"/>
<feComposite in2="hardAlpha" operator="out"/>
<feColorMatrix type="matrix" values="0 0 0 0 0.225 0 0 0 0 0.225 0 0 0 0 0.225 0 0 0 0.17 0"/>
<feBlend mode="normal" in2="BackgroundImageFix" result="effect1_dropShadow_30_3"/>
<feBlend mode="normal" in="SourceGraphic" in2="effect1_dropShadow_30_3" result="shape"/>
</filter>
<clipPath id="clip0_30_3">
<rect x="5" y="5" width="67" height="67" rx="7" fill="white"/>
</clipPath>
</defs>
</svg>
