<svg width="48" height="48" viewBox="0 0 48 48" fill="none" xmlns="http://www.w3.org/2000/svg">
<path d="M18.6491 42.2561C18.8248 42.3377 19.0236 42.3555 19.211 42.3065C19.3985 42.2574 19.563 42.1444 19.6762 41.9871L34.6762 21.1538C34.7658 21.0294 34.8193 20.8826 34.8308 20.7296C34.8423 20.5767 34.8114 20.4235 34.7415 20.287C34.6716 20.1505 34.5654 20.0359 34.4345 19.9559C34.3037 19.8758 34.1533 19.8335 33.9999 19.8334H26.5333L29.8084 6.70188C29.8554 6.51391 29.8354 6.31542 29.7518 6.1406C29.6683 5.96578 29.5264 5.82556 29.3506 5.74407C28.986 5.5764 28.5563 5.68831 28.3235 6.01302L13.3235 26.8463C13.2339 26.9708 13.1804 27.1176 13.1689 27.2706C13.1573 27.4235 13.1882 27.5767 13.2581 27.7132C13.3281 27.8497 13.4343 27.9643 13.5652 28.0443C13.696 28.1243 13.8464 28.1667 13.9998 28.1667H21.4664L18.1912 41.2983C18.1443 41.4863 18.1644 41.6847 18.2479 41.8595C18.3315 42.0343 18.4733 42.1745 18.6491 42.2561ZM23.342 27.5352C23.3726 27.4123 23.3749 27.2841 23.3486 27.1603C23.3223 27.0364 23.2681 26.9202 23.1902 26.8204C23.1122 26.7207 23.0126 26.6399 22.8988 26.5844C22.785 26.5289 22.6601 26.5 22.5335 26.5H15.6267L27.1416 10.5072L24.6578 20.4649C24.6271 20.5877 24.6249 20.7159 24.6512 20.8398C24.6775 20.9636 24.7317 21.0798 24.8096 21.1796C24.8875 21.2794 24.9872 21.3601 25.101 21.4156C25.2147 21.4712 25.3397 21.5 25.4663 21.5H32.373L20.8582 37.4929L23.342 27.5352Z" fill="#D1B180"/>
<circle cx="24" cy="24" r="23.25" stroke="#D1B180" stroke-width="1.5"/>
</svg>
