<svg width="65" height="65" viewBox="0 0 65 65" fill="none" xmlns="http://www.w3.org/2000/svg">
<g clip-path="url(#clip0_520_36)">
<path d="M51.323 40.0423C50.0473 37.3828 45.4837 33.6912 41.0747 30.1244C38.6155 28.1364 36.2917 26.2569 34.8103 24.7754C34.4392 24.4017 33.884 24.2825 33.3939 24.4586C32.4812 24.789 31.9178 25.0436 31.4737 25.2412C30.7967 25.5445 30.5692 25.6475 29.6564 25.7395C29.4576 25.7591 29.2657 25.8225 29.0943 25.925C28.9229 26.0276 28.7764 26.1668 28.6651 26.3327C26.7503 29.1953 24.7678 28.9516 23.4434 28.5075C23.0209 28.3667 22.9451 28.1852 22.9045 28.0119C22.6201 26.8229 24.0475 24.055 25.8972 22.2052C30.2983 17.8014 32.5678 16.6991 37.3615 18.8414C42.7998 21.2734 48.249 23.1775 48.3032 23.1964C48.4713 23.2552 48.6493 23.2803 48.827 23.2702C49.0048 23.2601 49.1788 23.215 49.3391 23.1375C49.4993 23.06 49.6427 22.9516 49.761 22.8186C49.8793 22.6855 49.9702 22.5304 50.0284 22.3622C50.2722 21.6553 49.9011 20.8834 49.1942 20.637C49.14 20.6181 43.7992 18.752 38.4692 16.3659C32.259 13.5899 28.8519 15.418 23.985 20.2877C22.1325 22.1402 19.6164 25.8884 20.2664 28.6375C20.5453 29.8075 21.3688 30.6742 22.5928 31.0777C25.6614 32.0906 28.4617 31.1209 30.5472 28.3531C31.4085 28.2204 31.877 28.0254 32.5811 27.7086C32.8945 27.567 33.2105 27.4316 33.5291 27.3023C35.0783 28.7567 37.1691 30.4494 39.371 32.2287C43.3522 35.4489 47.867 39.0998 48.8827 41.2123C49.3838 42.255 48.8447 42.9348 48.4791 43.2462C47.9428 43.7067 47.2089 43.8529 46.8108 43.5739C46.372 43.2733 45.8006 43.2544 45.3483 43.5251C45.1257 43.6578 44.9458 43.8516 44.8301 44.0835C44.7144 44.3154 44.6677 44.5756 44.6956 44.8333C44.7877 45.6945 43.9995 46.1875 43.6583 46.3581C42.7916 46.7969 41.887 46.7211 41.5485 46.4069C41.1692 46.0548 40.6249 45.9519 40.1428 46.1306C39.6608 46.312 39.3249 46.7562 39.2761 47.2708C39.1949 48.1591 38.5367 49.0122 37.6782 49.3453C37.2638 49.5024 36.6625 49.5972 36.1236 49.1042C35.9583 48.9553 35.7593 48.8489 35.5436 48.7941C35.328 48.7394 35.1023 48.738 34.886 48.79C34.6695 48.8429 34.4694 48.9484 34.3036 49.0973C34.1377 49.2461 34.0112 49.4336 33.9353 49.6432C33.8839 49.7786 33.7674 50.1036 32.4999 50.1036C31.598 50.1036 29.9757 49.4942 29.1822 48.9688C28.2316 48.3431 22.2705 43.8961 17.122 39.5844C16.3989 38.975 15.1477 37.6696 14.0427 36.5158C13.0622 35.4921 12.1658 34.5631 11.7053 34.1731C11.1285 33.6856 10.2753 33.7588 9.79596 34.333C9.31392 34.9044 9.38425 35.7603 9.95579 36.2424C10.3756 36.5972 11.1881 37.4556 12.0845 38.39C13.2925 39.6521 14.541 40.9575 15.3806 41.6617C20.4236 45.8841 26.4848 50.4422 27.6927 51.2356C28.6894 51.8911 30.837 52.8119 32.5 52.8119C33.8352 52.8119 34.8617 52.5058 35.5739 51.9074C36.5272 52.2784 37.6106 52.2811 38.6533 51.8749C39.8856 51.3982 40.8985 50.4367 41.4727 49.2722C42.5397 49.4997 43.7613 49.3399 44.8716 48.782C45.9577 48.235 46.743 47.3981 47.133 46.4203C48.211 46.4772 49.3213 46.0953 50.2394 45.3072C51.7942 43.9775 52.222 41.9084 51.323 40.0423Z" fill="#D1B180"/>
<path d="M27.0833 17.6038H14.8958C14.1483 17.6038 13.5416 18.2105 13.5416 18.958C13.5416 19.7055 14.1483 20.3122 14.8958 20.3122H27.0833C27.8308 20.3122 28.4375 19.7055 28.4375 18.958C28.4375 18.2105 27.8308 17.6038 27.0833 17.6038ZM55.2906 37.1606C54.8708 36.5405 54.0312 36.3698 53.4111 36.7923L49.4515 39.4519C48.8314 39.8689 48.6661 40.7113 49.0832 41.3314C49.2078 41.5157 49.3757 41.6666 49.5721 41.771C49.7685 41.8753 49.9875 41.9299 50.21 41.93C50.4673 41.93 50.73 41.8569 50.9629 41.6998L54.9225 39.0403C55.5425 38.6231 55.7077 37.7809 55.2906 37.1606ZM46.8839 43.6228C45.9144 42.8591 41.5783 38.4201 38.897 35.6251C38.3797 35.0834 37.5212 35.0645 36.9822 35.5845C36.4405 36.1018 36.4242 36.9603 36.9416 37.4993C37.6377 38.2251 43.7774 44.625 45.2047 45.7517C45.4431 45.9397 45.7379 46.0419 46.0416 46.0415C46.4397 46.0415 46.8378 45.8628 47.1086 45.5242C47.5719 44.9391 47.4717 44.0859 46.8839 43.6228ZM41.4727 46.3392C39.8503 45.0419 35.7744 40.7113 34.8535 39.7092C34.3442 39.1567 33.4911 39.1242 32.9386 39.628C32.3888 40.1344 32.351 40.993 32.8574 41.5428C32.9061 41.5942 37.7703 46.8458 39.7799 48.4545C40.0202 48.6454 40.318 48.7494 40.6249 48.7497C41.0203 48.7497 41.4157 48.5736 41.6838 48.2433C42.1498 47.6581 42.055 46.805 41.4727 46.3392ZM36.0831 49.0666C34.152 47.4389 30.2006 43.2328 29.4287 42.4067C28.9169 41.8597 28.0583 41.8298 27.5139 42.3417C26.9669 42.8536 26.9397 43.7094 27.4489 44.2566C28.5594 45.4455 32.3402 49.4539 34.3362 51.1384C34.58 51.3447 34.889 51.4579 35.2083 51.458C35.5928 51.458 35.9775 51.2928 36.2456 50.9759C36.7277 50.4017 36.6545 49.5486 36.0831 49.0666Z" fill="#D1B180"/>
<path d="M15.8275 15.2665C13.5064 13.0673 4.225 12.355 1.43546 12.1898C1.05092 12.1709 0.696084 12.2981 0.425293 12.5555C0.290918 12.6821 0.183869 12.8349 0.11073 13.0044C0.0375909 13.1739 -9.16405e-05 13.3566 1.67353e-07 13.5412V37.9162C1.67353e-07 38.6637 0.606709 39.2705 1.35421 39.2705H9.47921C10.0642 39.2705 10.5842 38.894 10.7656 38.3361C10.9633 37.7294 15.6298 23.4078 16.2445 16.3661C16.2798 15.9544 16.1281 15.5481 15.8275 15.2665ZM8.49062 36.5622H2.70829V14.993C7.06063 15.3369 11.7569 16.0844 13.4631 16.9131C12.7455 22.8444 9.49813 33.3825 8.49062 36.5622ZM63.6458 14.8955C53.0128 14.8955 47.1141 17.6173 46.8677 17.7311C46.5156 17.8962 46.2528 18.2023 46.1445 18.5734C46.0362 18.9445 46.0903 19.3426 46.2935 19.673C47.9672 22.3678 53.2078 37.334 54.2153 40.9848C54.2941 41.2705 54.4645 41.5225 54.7004 41.7021C54.9362 41.8816 55.2244 41.9788 55.5208 41.9787H63.6458C64.3933 41.9787 65 41.372 65 40.6245V16.2495C65.0002 16.0717 64.9652 15.8955 64.8972 15.7311C64.8292 15.5668 64.7295 15.4174 64.6037 15.2917C64.4779 15.1659 64.3286 15.0662 64.1642 14.9982C63.9998 14.9302 63.8237 14.8953 63.6458 14.8955ZM62.2917 39.2705H56.5338C55.25 35.0887 51.4583 24.185 49.3431 19.6784C51.4095 18.977 55.8486 17.7717 62.2917 17.6201V39.2705Z" fill="#D1B180"/>
</g>
<defs>
<clipPath id="clip0_520_36">
<rect width="65" height="65" fill="white"/>
</clipPath>
</defs>
</svg>
