<svg width="52" height="52" viewBox="0 0 52 52" fill="none" xmlns="http://www.w3.org/2000/svg">
<path d="M9.21674 46.4286H28.4634V5.71802" stroke="#D1B180" stroke-width="1.4881" stroke-miterlimit="10" stroke-linecap="round" stroke-linejoin="round"/>
<path d="M44.2439 3.88285L44.6639 5.07293M20.8785 27.7677H16.373C16.292 27.7677 16.2128 27.7921 16.146 27.8379C16.0791 27.8836 16.0276 27.9485 15.9982 28.024L13.9395 33.3125C13.919 33.3651 13.9098 33.4215 13.9125 33.4779C13.9152 33.5342 13.9298 33.5894 13.9552 33.6398C13.9807 33.6902 14.0165 33.7347 14.0602 33.7703C14.104 33.806 14.1548 33.832 14.2093 33.8468L18.0463 34.8838C18.1467 34.9109 18.2326 34.9758 18.2862 35.0649C18.3397 35.154 18.3567 35.2604 18.3335 35.3617L17.3423 39.6962C17.2495 40.1016 17.758 40.364 18.0347 40.0534L23.6665 33.7315C23.7056 33.6875 23.7346 33.6355 23.7515 33.5791C23.7683 33.5228 23.7726 33.4634 23.764 33.4051C23.7554 33.3469 23.7341 33.2913 23.7017 33.2422C23.6693 33.1931 23.6265 33.1517 23.5763 33.121L20.4696 31.2167C20.389 31.1673 20.3284 31.0911 20.2984 31.0015C20.2684 30.9119 20.2709 30.8146 20.3055 30.7266L21.2529 28.3171C21.3565 28.0532 21.162 27.7677 20.8785 27.7677ZM22.8061 24.1746H14.8276C14.6343 24.1746 14.4489 24.0978 14.3122 23.9611C14.1755 23.8245 14.0987 23.6391 14.0987 23.4458V12.1468C14.0987 11.9535 14.1755 11.7681 14.3122 11.6315C14.4489 11.4948 14.6343 11.418 14.8276 11.418H22.8061C22.9995 11.418 23.1848 11.4948 23.3215 11.6315C23.4582 11.7681 23.535 11.9535 23.535 12.1468V23.4457C23.535 23.5414 23.5162 23.6362 23.4796 23.7246C23.4429 23.8131 23.3892 23.8934 23.3216 23.9611C23.2539 24.0288 23.1735 24.0825 23.0851 24.1191C22.9967 24.1558 22.9019 24.1746 22.8061 24.1746ZM47.6843 3.9648V10.8341C47.6843 10.8836 47.6941 10.9326 47.713 10.9783C47.7319 11.024 47.7597 11.0656 47.7947 11.1006C47.8297 11.1356 47.8712 11.1633 47.9169 11.1823C47.9626 11.2012 48.0116 11.2109 48.0611 11.2109H49.9288C49.9783 11.2109 50.0272 11.2012 50.073 11.1823C50.1187 11.1633 50.1602 11.1356 50.1952 11.1006C50.2302 11.0656 50.2579 11.024 50.2769 10.9783C50.2958 10.9326 50.3056 10.8836 50.3056 10.8341V3.9648C50.3056 3.86487 50.2659 3.76903 50.1952 3.69837C50.1245 3.62771 50.0287 3.58801 49.9288 3.58801H48.0611C48.0116 3.588 47.9626 3.59774 47.9169 3.61667C47.8712 3.6356 47.8296 3.66335 47.7947 3.69834C47.7597 3.73333 47.7319 3.77487 47.713 3.82059C47.6941 3.86631 47.6843 3.91531 47.6843 3.9648ZM30.191 42.2839H28.4634V31.0125H30.191C30.7238 31.0125 31.1557 31.4445 31.1557 31.9773V41.3191C31.1557 41.8519 30.7238 42.2839 30.191 42.2839Z" stroke="#D1B180" stroke-width="1.4881" stroke-miterlimit="10" stroke-linecap="round" stroke-linejoin="round"/>
<path d="M31.1557 33.0292H32.6668C33.3824 33.0292 34.0855 33.2174 34.7055 33.5749C35.3254 33.9324 35.8405 34.4467 36.1989 35.0662L38.1655 38.4649C38.2651 38.6372 38.304 38.838 38.2759 39.035C38.2478 39.2321 38.1543 39.414 38.0104 39.5515L37.138 40.3851C36.9773 40.5387 36.7649 40.6263 36.5428 40.6309C36.3206 40.6355 36.1048 40.5565 35.938 40.4097L35.0423 39.6216C34.8386 39.4423 34.5891 39.323 34.3216 39.2769C34.0541 39.2308 33.779 39.2598 33.527 39.3605L31.1556 40.3882V33.0292H31.1557Z" stroke="#D1B180" stroke-width="1.4881" stroke-miterlimit="10" stroke-linecap="round" stroke-linejoin="round"/>
<path d="M38.5102 11.3915L36.719 13.4037C36.0974 14.102 35.6959 14.9682 35.5648 15.8939C35.4337 16.8195 35.579 17.7632 35.9823 18.6066L45.5256 38.5639C46.2836 40.1489 45.7742 42.0498 44.3254 43.0435C42.8225 44.0742 40.7843 43.8062 39.599 42.4218L37.5328 40.0081M48.995 11.2109L48.6744 13.4079C48.5352 14.3616 47.4922 14.8887 46.6418 14.435L46.039 14.1134C45.7768 13.9735 45.4767 13.9212 45.1826 13.9641C44.8885 14.0071 44.6159 14.1431 44.4047 14.3521C43.8443 14.9067 42.9355 14.8855 42.4015 14.3055L40.4179 12.1509M17.0223 15.0112H20.6114M17.0223 17.7963H20.6114M17.0223 20.5814H20.6114" stroke="#D1B180" stroke-width="1.4881" stroke-miterlimit="10" stroke-linecap="round" stroke-linejoin="round"/>
<path d="M40.0553 7.9405L38.4273 10.0255C38.3465 10.129 38.2949 10.2522 38.278 10.3824C38.2611 10.5126 38.2793 10.6449 38.331 10.7656L38.9352 12.1782C39.1328 12.6399 39.7252 12.7713 40.0992 12.4362L41.8661 10.8542C42.2096 10.5466 42.6566 10.3801 43.1177 10.3881L47.6843 10.4673V4.33167L43.1775 5.43762C42.8228 5.52474 42.4806 5.65683 42.1593 5.83067M14 50.3056H31.7077C31.8952 50.3056 32.0749 50.2311 32.2074 50.0986C32.3399 49.9661 32.4144 49.7864 32.4144 49.5989V47.1354C32.4144 46.9479 32.3399 46.7682 32.2074 46.6357C32.0749 46.5032 31.8952 46.4287 31.7077 46.4287H1.70665C1.51923 46.4287 1.33949 46.5032 1.20697 46.6357C1.07445 46.7682 1 46.9479 1 47.1354V49.5989C1 49.7864 1.07445 49.9661 1.20697 50.0986C1.33949 50.2311 1.51923 50.3056 1.70665 50.3056H14.2864" stroke="#D1B180" stroke-width="1.4881" stroke-miterlimit="10" stroke-linecap="round" stroke-linejoin="round"/>
<path d="M12.4734 4.54308L9.90337 5.05329C7.03373 5.62304 4.95099 8.15984 4.95099 11.0854V46.4288H9.21686V11.0853C9.21686 10.1892 9.85496 9.41203 10.7339 9.23752L31.0194 5.21064C31.7596 5.06371 32.2406 4.34456 32.0937 3.60439L31.7951 2.10062C31.6482 1.36044 30.9291 0.879484 30.1889 1.02641L12.157 4.6059" stroke="#D1B180" stroke-width="1.4881" stroke-miterlimit="10" stroke-linecap="round" stroke-linejoin="round"/>
</svg>
