<svg width="50" height="50" viewBox="0 0 50 50" fill="none" xmlns="http://www.w3.org/2000/svg">
<g clip-path="url(#clip0_520_16)">
<path d="M49.2188 11.1219V4.6875C49.2188 2.53359 47.4664 0.78125 45.3125 0.78125H4.6875C2.53359 0.78125 0.78125 2.53359 0.78125 4.6875V11.1219L2.34375 14.2469V47.6562H0.78125V49.2188H10.1562V47.6562H8.59375V14.8438H9.85781L10.9375 12.6844L12.0172 14.8438H19.2328L20.3125 12.6844L21.3922 14.8438H28.6078L29.6875 12.6844L30.7672 14.8438H37.9828L39.0625 12.6844L40.1422 14.8438H41.4062V32.5211C40.5663 31.3982 39.4761 30.4868 38.2221 29.8593C36.9681 29.2318 35.585 28.9054 34.1828 28.9062H27.3438V21.875C27.3438 19.7211 25.5914 17.9688 23.4375 17.9688H14.0625C11.9086 17.9688 10.1562 19.7211 10.1562 21.875V42.9688H16.4062V43.75C16.4062 45.9039 18.1586 47.6562 20.3125 47.6562H22.6766C23.3906 48.5992 24.5109 49.2188 25.7812 49.2188C27.0516 49.2188 28.1727 48.5992 28.8859 47.6562H36.7383C37.4523 48.5992 38.5727 49.2188 39.843 49.2188C41.1133 49.2188 42.2344 48.5992 42.9477 47.6562H45.3125C47.4664 47.6562 49.2188 45.9039 49.2188 43.75V39.9398C49.2188 38.6813 48.6133 37.5492 47.6562 36.8289V14.2469L49.2188 11.1219ZM47.6562 4.6875V10.1562H39.8438V2.34375H45.3125C46.6047 2.34375 47.6562 3.39531 47.6562 4.6875ZM21.0938 2.34375H28.9062V10.1562H21.0938V2.34375ZM19.5312 10.1562H11.7188V2.34375H19.5312V10.1562ZM30.4688 2.34375H38.2812V10.1562H30.4688V2.34375ZM4.6875 2.34375H10.1562V10.1562H2.34375V4.6875C2.34375 3.39531 3.39531 2.34375 4.6875 2.34375ZM7.03125 47.6562H3.90625V14.8438H7.03125V47.6562ZM3.60781 13.2812L2.82656 11.7188H9.67344L8.89219 13.2812H3.60781ZM12.9828 13.2812L12.2016 11.7188H19.0484L18.2672 13.2812H12.9828ZM22.3578 13.2812L21.5766 11.7188H28.4234L27.6422 13.2812H22.3578ZM31.7328 13.2812L30.9516 11.7188H37.7984L37.0172 13.2812H31.7328ZM40.3266 11.7188H47.1734L46.3922 13.2812H41.1078L40.3266 11.7188ZM46.0938 14.8438V36.1086L42.9688 35.3273V14.8438H46.0938ZM44.5312 37.3289L45.8813 37.6664C46.3718 37.7892 46.8093 38.0678 47.1279 38.4604C47.4466 38.853 47.6292 39.3384 47.6484 39.8438H46.0938C45.232 39.8438 44.5312 39.143 44.5312 38.2812V37.3289ZM41.4297 36.1273L41.5438 36.582L42.9688 36.9383V38.2812C42.9688 40.0047 44.3703 41.4062 46.0938 41.4062H47.6562V42.9688H42.9484C42.2344 42.0258 41.1141 41.4062 39.8438 41.4062C38.5734 41.4062 37.4523 42.0258 36.7391 42.9688H28.8859C28.1719 42.0258 27.0516 41.4062 25.7812 41.4062C24.5109 41.4062 23.3898 42.0258 22.6766 42.9688H17.9688V37.5C17.9688 33.6234 21.1227 30.4688 25 30.4688H34.1828C35.8492 30.4669 37.4683 31.0232 38.7817 32.0488C40.0952 33.0743 41.0274 34.5102 41.4297 36.1273ZM11.7188 41.4062V21.875C11.7188 20.5828 12.7703 19.5312 14.0625 19.5312H23.4375C24.7297 19.5312 25.7812 20.5828 25.7812 21.875V28.9062H25C20.525 28.9062 16.8422 32.3453 16.4461 36.7188H14.8438V28.9062H13.2812V38.2812H16.4062V41.4062H11.7188ZM20.3125 46.0938C19.8294 46.0922 19.3586 45.9412 18.9647 45.6614C18.5708 45.3817 18.2731 44.9869 18.1125 44.5312H21.9539C21.8486 45.0468 21.8486 45.5782 21.9539 46.0938H20.3125ZM25.7812 47.6562C24.4891 47.6562 23.4375 46.6047 23.4375 45.3125C23.4375 44.0203 24.4891 42.9688 25.7812 42.9688C27.0734 42.9688 28.125 44.0203 28.125 45.3125C28.125 46.6047 27.0734 47.6562 25.7812 47.6562ZM29.6086 46.0938C29.7139 45.5782 29.7139 45.0468 29.6086 44.5312H36.0164C35.9111 45.0468 35.9111 45.5782 36.0164 46.0938H29.6086ZM39.8438 47.6562C38.5516 47.6562 37.5 46.6047 37.5 45.3125C37.5 44.0203 38.5516 42.9688 39.8438 42.9688C41.1359 42.9688 42.1875 44.0203 42.1875 45.3125C42.1875 46.6047 41.1359 47.6562 39.8438 47.6562ZM45.3125 46.0938H43.6711C43.7764 45.5782 43.7764 45.0468 43.6711 44.5312H47.5125C47.3519 44.9869 47.0542 45.3817 46.6603 45.6614C46.2664 45.9412 45.7956 46.0922 45.3125 46.0938Z" fill="#D1B180"/>
<path d="M19.5312 37.5V38.2812H39.3133L40.3172 38.2328L40.0547 37.25C39.6538 35.7541 38.7709 34.432 37.5428 33.4886C36.3146 32.5452 34.8096 32.0329 33.2609 32.0312H25C21.9852 32.0312 19.5312 34.4844 19.5312 37.5ZM25 33.5938H30.4688V36.7188H21.1727C21.3538 35.8371 21.8334 35.0449 22.5306 34.4756C23.2278 33.9064 24.0999 33.5949 25 33.5938ZM38.2023 36.7188H32.0312V33.5938H33.2609C34.2956 33.5948 35.3089 33.8889 36.1834 34.4419C37.0579 34.995 37.7579 35.7844 38.2023 36.7188ZM24.2188 21.0938H13.2812V27.3438H24.2188V21.0938ZM22.6562 25.7812H14.8438V22.6562H22.6562V25.7812Z" fill="#D1B180"/>
</g>
<defs>
<clipPath id="clip0_520_16">
<rect width="50" height="50" fill="white"/>
</clipPath>
</defs>
</svg>
