<svg width="50" height="50" viewBox="0 0 50 50" fill="none" xmlns="http://www.w3.org/2000/svg">
<g clip-path="url(#clip0_520_22)">
<path d="M49.2677 10.0193C49.4619 10.0193 49.6482 9.94215 49.7856 9.8048C49.9229 9.66744 50.0001 9.48115 50.0001 9.2869V8.01248C50.0001 6.24256 48.5601 4.80252 46.7902 4.80252H37.7677C37.4542 4.14276 36.783 3.68436 36.005 3.68436H24.9194C24.9044 3.27738 24.8032 2.87823 24.6223 2.51336C24.4414 2.14849 24.185 1.82623 23.8701 1.56795C23.2046 1.02059 22.3392 0.801743 21.4955 0.967466C18.2609 1.60213 15.339 3.3618 13.2683 5.92284C12.7766 6.53124 12.5555 7.29393 12.6458 8.0703C12.7361 8.84549 13.1256 9.53582 13.7432 10.0145L14.0309 10.2371L11.0928 15.4407C10.9978 15.6098 10.9738 15.8096 11.026 15.9964C11.0782 16.1832 11.2023 16.3416 11.3712 16.437C11.54 16.5324 11.7398 16.5569 11.9267 16.5052C12.1136 16.4535 12.2724 16.3298 12.3682 16.1612L15.8313 10.0281C17.5311 7.01883 20.7342 5.1494 24.1905 5.1494H36.005C36.2737 5.1494 36.4923 5.36756 36.4923 5.63573V27.8681C36.4921 27.9973 36.4408 28.1212 36.3494 28.2126C36.258 28.3039 36.1342 28.3553 36.005 28.3555H23.3273C21.8496 28.3555 20.4805 29.1549 19.7539 30.4416L15.1054 38.6733C14.9807 38.8957 14.8131 39.0911 14.6123 39.2483C14.4115 39.4054 14.1815 39.5212 13.9357 39.5888C13.6902 39.6578 13.4335 39.6774 13.1804 39.6466C12.9273 39.6158 12.6829 39.5351 12.4611 39.4093L11.3225 38.7657C11.2388 38.7183 11.1465 38.688 11.051 38.6763C10.9556 38.6646 10.8587 38.6718 10.7661 38.6975C10.6734 38.7233 10.5867 38.7671 10.5109 38.8263C10.4352 38.8856 10.3718 38.9592 10.3245 39.043C10.229 39.2121 10.2045 39.4122 10.2565 39.5993C10.3085 39.7865 10.4327 39.9453 10.6018 40.0409L11.5571 40.5808L10.4024 42.6253C9.87736 43.5544 8.69406 43.8833 7.76447 43.3585L3.16867 40.7632C2.9468 40.6387 2.75182 40.4715 2.59503 40.2711C2.43823 40.0708 2.32272 39.8414 2.25519 39.5961C2.18635 39.3512 2.16676 39.0952 2.19757 38.8427C2.22838 38.5903 2.30898 38.3465 2.43468 38.1254L3.58918 36.0806L10.9129 40.1817C10.9966 40.2291 11.0889 40.2594 11.1843 40.2711C11.2798 40.2828 11.3767 40.2755 11.4694 40.2498C11.562 40.224 11.6487 40.1802 11.7245 40.1209C11.8002 40.0616 11.8635 39.988 11.9108 39.9042C11.9581 39.8204 11.9885 39.7282 12.0001 39.6327C12.0118 39.5372 12.0045 39.4404 11.9787 39.3477C11.953 39.2551 11.9092 39.1684 11.8499 39.0926C11.7906 39.0169 11.717 38.9535 11.6333 38.9062L4.12648 34.7016C3.67472 34.447 3.34933 34.0317 3.21047 33.5323C3.0716 33.0329 3.13556 32.5091 3.39093 32.0573L12.6458 15.6696C12.7413 15.5005 12.7657 15.3003 12.7137 15.1131C12.6616 14.926 12.5373 14.7672 12.3682 14.6717C12.199 14.5761 11.9989 14.5517 11.8117 14.6038C11.6246 14.6559 11.4657 14.7801 11.3702 14.9493L2.11545 31.3368C1.66779 32.1293 1.55548 33.0484 1.79923 33.9248C1.92337 34.3731 2.13829 34.7912 2.43068 35.153L1.1592 37.4049C0.712418 38.1957 0.600407 39.1133 0.843864 39.9886C1.0634 40.7777 1.54884 41.4465 2.22189 41.8979L0.094938 45.6638C0.0476352 45.7475 0.0172913 45.8397 0.00563881 45.9352C-0.00601364 46.0307 0.00125353 46.1275 0.0270254 46.2202C0.0527973 46.3129 0.0965692 46.3996 0.155842 46.4753C0.215115 46.5511 0.288727 46.6144 0.372477 46.6617C0.456227 46.709 0.548473 46.7393 0.64395 46.751C0.739427 46.7627 0.836264 46.7554 0.928932 46.7296C1.0216 46.7038 1.10828 46.6601 1.18404 46.6008C1.25979 46.5415 1.32312 46.4679 1.37043 46.3842L3.49211 42.6279L6.34357 44.2381L4.22218 47.9938C4.17488 48.0776 4.14454 48.1698 4.13288 48.2653C4.12123 48.3608 4.1285 48.4576 4.15427 48.5503C4.18004 48.643 4.22381 48.7296 4.28309 48.8054C4.34236 48.8811 4.41597 48.9445 4.49972 48.9918C4.58347 49.0391 4.67572 49.0694 4.7712 49.0811C4.86667 49.0927 4.96351 49.0855 5.05618 49.0597C5.14885 49.0339 5.23553 48.9902 5.31128 48.9309C5.38703 48.8716 5.45037 48.798 5.49767 48.7142L7.6509 44.9022C7.99296 45.0152 8.3509 45.0728 8.71115 45.0726C9.89865 45.0726 11.0534 44.4508 11.6779 43.3455L12.95 41.0934C13.1024 41.1144 13.256 41.1258 13.4102 41.1258C13.7166 41.1258 14.025 41.0841 14.3283 40.9997C15.2052 40.7558 15.9344 40.1851 16.3813 39.393L21.0297 31.1614C21.2598 30.7546 21.5938 30.416 21.9974 30.1804C22.4011 29.9447 22.86 29.8203 23.3275 29.8199H36.0052C36.783 29.8199 37.454 29.3616 37.7676 28.7017H46.7903C48.5603 28.7017 50.0003 27.2617 50.0003 25.4918V12.7047C50.0003 12.5104 49.9231 12.3241 49.7858 12.1868C49.6484 12.0494 49.4621 11.9723 49.2679 11.9723C49.0736 11.9723 48.8873 12.0494 48.75 12.1868C48.6126 12.3241 48.5355 12.5104 48.5355 12.7047V25.4918C48.5355 26.454 47.7526 27.2369 46.7903 27.2369H37.9571V6.26737H46.7901C47.7523 6.26737 48.5352 7.05018 48.5352 8.01248V9.2869C48.5352 9.48115 48.6124 9.66743 48.7498 9.80478C48.8871 9.94212 49.0734 10.0193 49.2677 10.0193ZM14.7654 8.95331L14.64 8.85624C14.4906 8.7413 14.366 8.59749 14.2733 8.43338C14.1807 8.26927 14.1221 8.0882 14.1009 7.90096C14.0785 7.71319 14.0941 7.52283 14.1467 7.3412C14.1994 7.15958 14.2881 6.9904 14.4074 6.84374C16.2622 4.54979 18.8796 2.97342 21.7778 2.40487C21.9811 2.36475 22.1908 2.37036 22.3918 2.42128C22.5927 2.4722 22.7798 2.56717 22.9395 2.6993C23.0901 2.82313 23.2134 2.97678 23.3018 3.15059C23.3901 3.3244 23.4415 3.51462 23.4527 3.70926C19.8915 3.94784 16.642 5.90272 14.7654 8.95331Z" fill="#D1B180"/>
<path d="M28.8975 8.75414C28.3946 8.48764 27.7985 8.59037 27.4139 9.00971L20.631 16.4036C20.4696 16.5797 20.3628 16.799 20.3239 17.0347C20.2849 17.2705 20.3153 17.5124 20.4115 17.7312C20.5077 17.9499 20.6654 18.1359 20.8655 18.2665C21.0656 18.3972 21.2993 18.4668 21.5383 18.4668H23.2756L22.1129 23.3788C21.9807 23.9374 22.2341 24.4904 22.7434 24.7549C22.9206 24.8479 23.1175 24.8968 23.3176 24.8974C23.6577 24.8974 23.989 24.7532 24.2318 24.4793L30.7322 17.1513C31.0581 16.7839 31.1354 16.2774 30.934 15.8294C30.7325 15.3815 30.3023 15.1033 29.8112 15.1033H28.3408L29.519 10.1254C29.65 9.57172 29.4003 9.02064 28.8975 8.75414ZM29.2912 16.5681L23.7521 22.8124L24.7689 18.5166C24.8122 18.3359 24.8138 18.1477 24.7736 17.9662C24.7333 17.7848 24.6523 17.6149 24.5366 17.4694C24.4217 17.3233 24.275 17.2053 24.1077 17.1243C23.9404 17.0433 23.7569 17.0015 23.571 17.002H22.0698L27.8868 10.661L26.8471 15.0536C26.8038 15.2343 26.8022 15.4225 26.8424 15.604C26.8827 15.7854 26.9637 15.9553 27.0794 16.1008C27.1943 16.2469 27.341 16.3649 27.5083 16.4459C27.6756 16.5269 27.8591 16.5687 28.045 16.5682H29.2912V16.5681Z" fill="#D1B180"/>
</g>
<defs>
<clipPath id="clip0_520_22">
<rect width="50" height="50" fill="white"/>
</clipPath>
</defs>
</svg>
